<svg width="90" height="32" viewBox="0 0 90 32" fill="none" xmlns="http://www.w3.org/2000/svg">
    <path fill-rule="evenodd" clip-rule="evenodd"
        d="M3.23961 3.22523L0 6.44496V15.9862V25.5274L3.23348 28.7401L6.46706 31.9526L22.4758 31.9277L38.4845 31.9029L35.2979 28.7328L32.1114 25.5627H19.2712H6.43095V22.368V19.1734H25.7238H45.0166V25.5867V32L48.2321 28.8065L51.4476 25.613V22.3953V19.1776L66.7087 19.1479C80.8322 19.1204 82.0168 19.1055 82.6002 18.9476C83.5508 18.6902 84.4546 18.3139 85.3337 17.8092C86.4214 17.1848 88.0406 15.5749 88.6357 14.5259C89.9862 12.1456 90.3288 9.76741 89.687 7.22917C88.8359 3.86308 86.2377 1.27698 82.7487 0.322902L81.772 0.0558282L66.6378 0.0279117L51 0L48 3L45 6.5L45.0166 9.61337V12.7841H25.7238H6.43095V9.58939V6.39473H19.3182H32.2054L35.4197 3.20006L38.634 0.00540161H22.5567H6.47933L3.23961 3.22523ZM51.4476 9.58939V12.7841H66.1855H80.9236L81.4961 12.5753C81.9131 12.4232 82.2218 12.2121 82.6319 11.7983C83.1058 11.3203 83.2292 11.1186 83.4105 10.5256C83.5749 9.98769 83.6098 9.70056 83.5581 9.31199C83.3781 7.96031 82.5089 6.92927 81.2318 6.55249C80.7516 6.41075 79.208 6.39473 66.0723 6.39473H51.4476V9.58939Z"
        fill="white" />
</svg>