<svg width="181" height="73" viewBox="0 0 181 73" fill="none" xmlns="http://www.w3.org/2000/svg">
<path fill-rule="evenodd" clip-rule="evenodd" d="M6.93122 7.8256L0 15.6512V36.5V57.3488L6.93122 65.1744L13.8624 73H44.8158C61.8408 73 75.7691 72.3393 75.7691 71.5327C75.7691 70.7261 73.3247 67.441 70.3368 64.2327L64.9061 58.4H39.0408H13.1772V51.1V43.8H51.8854H90.5935V57.858V71.9159L97.1821 64.7875C102.583 58.9457 103.771 56.4089 103.771 50.7295V43.8L134.655 43.7726C168.69 43.7434 171.302 43.0864 177.431 33.0106C182.192 25.1832 182.19 18.6168 177.423 10.7638C171.866 1.60417 166.143 0.220825 133.35 0.1022L104.456 0L97.5247 7.8256C91.8947 14.1821 90.5935 16.9214 90.5935 22.4256V29.2H51.8854H13.1772V21.9V14.6H39.2089H65.2405L70.5048 8.58115C73.4005 5.27242 75.7691 1.98742 75.7691 1.28115C75.7691 0.576699 61.8408 0 44.8158 0H13.8624L6.93122 7.8256ZM103.771 21.9V29.2H133.914C165.035 29.2 168.01 28.5375 168.01 21.5989C168.01 15.7315 162.304 14.6 132.705 14.6H103.771V21.9Z" fill="black"/>
</svg>
